<svg width="33" height="32" viewBox="0 0 33 32" fill="none" xmlns="http://www.w3.org/2000/svg">
<path d="M13.5677 2.66667V5.33334" stroke="#B98D73" stroke-width="2" stroke-linecap="round" stroke-linejoin="round"/>
<path d="M18.901 2.66667V5.33334" stroke="#B98D73" stroke-width="2" stroke-linecap="round" stroke-linejoin="round"/>
<path d="M21.5677 10.6667C21.9213 10.6667 22.2605 10.8071 22.5105 11.0572C22.7606 11.3072 22.901 11.6464 22.901 12V22.6667C22.901 24.0812 22.3391 25.4377 21.3389 26.4379C20.3388 27.4381 18.9822 28 17.5677 28H9.56771C8.15322 28 6.79667 27.4381 5.79647 26.4379C4.79628 25.4377 4.23438 24.0812 4.23438 22.6667V12C4.23438 11.6464 4.37485 11.3072 4.6249 11.0572C4.87495 10.8071 5.21409 10.6667 5.56771 10.6667H24.2344C25.6489 10.6667 27.0054 11.2286 28.0056 12.2288C29.0058 13.229 29.5677 14.5855 29.5677 16C29.5677 17.4145 29.0058 18.771 28.0056 19.7712C27.0054 20.7714 25.6489 21.3333 24.2344 21.3333H22.901" stroke="#B98D73" stroke-width="2" stroke-linecap="round" stroke-linejoin="round"/>
<path d="M8.23438 2.66667V5.33334" stroke="#B98D73" stroke-width="2" stroke-linecap="round" stroke-linejoin="round"/>
</svg>
