<svg width="202" height="147" viewBox="0 0 202 147" fill="none" xmlns="http://www.w3.org/2000/svg">
<g filter="url(#filter0_dd_1_6)">
<path d="M60.9844 53C60.9844 30.9086 78.893 13 100.984 13V13C123.076 13 140.984 30.9086 140.984 53V53C140.984 75.0914 123.076 93 100.984 93V93C78.893 93 60.9844 75.0914 60.9844 53V53Z" fill="#EF4444"/>
<path d="M64.9844 53C64.9844 33.1177 81.1021 17 100.984 17V17C120.867 17 136.984 33.1177 136.984 53V53C136.984 72.8823 120.867 89 100.984 89V89C81.1021 89 64.9844 72.8823 64.9844 53V53Z" fill="white"/>
<path d="M96.9844 33H104.984" stroke="#EF4444" stroke-linecap="round" stroke-linejoin="round"/>
<path d="M100.984 57L106.984 51" stroke="#EF4444" stroke-linecap="round" stroke-linejoin="round"/>
<path d="M100.984 73C109.821 73 116.984 65.8366 116.984 57C116.984 48.1634 109.821 41 100.984 41C92.1478 41 84.9844 48.1634 84.9844 57C84.9844 65.8366 92.1478 73 100.984 73Z" stroke="#EF4444" stroke-linecap="round" stroke-linejoin="round"/>
<path d="M127.099 40.0849C123.788 40.095 120.594 38.8602 118.151 36.6256C115.707 34.391 114.193 31.3197 113.908 28.021C113.624 24.7222 114.589 21.4369 116.613 18.8166C118.637 16.1963 121.572 14.4324 124.836 13.8749C135.584 11.8007 138.412 10.8202 142.184 6.14383C144.069 9.91506 145.955 14.0257 145.955 21.2288C145.955 31.5997 136.942 40.0849 127.099 40.0849Z" stroke="#22C55E" stroke-linecap="round" stroke-linejoin="round"/>
<path d="M110.128 41.9706C110.128 36.3137 113.617 31.8636 119.707 30.6569C124.27 29.7518 128.984 26.8856 130.87 25" stroke="#22C55E" stroke-linecap="round" stroke-linejoin="round"/>
</g>
<path d="M20.815 136V117.455H28.1317C29.5384 117.455 30.7367 117.723 31.7267 118.26C32.7168 118.792 33.4714 119.531 33.9906 120.479C34.5158 121.421 34.7784 122.507 34.7784 123.739C34.7784 124.971 34.5128 126.057 33.9815 126.999C33.4503 127.941 32.6806 128.674 31.6724 129.199C30.6703 129.725 29.4569 129.987 28.0321 129.987H23.3686V126.845H27.3983C28.1529 126.845 28.7747 126.715 29.2637 126.456C29.7587 126.19 30.127 125.825 30.3684 125.36C30.6159 124.889 30.7397 124.349 30.7397 123.739C30.7397 123.123 30.6159 122.586 30.3684 122.127C30.127 121.662 29.7587 121.303 29.2637 121.05C28.7686 120.79 28.1408 120.66 27.3801 120.66H24.736V136H20.815ZM54.3675 126.727C54.3675 128.75 53.9842 130.47 53.2175 131.889C52.4568 133.308 51.4185 134.391 50.1024 135.14C48.7924 135.882 47.3194 136.254 45.6834 136.254C44.0353 136.254 42.5562 135.879 41.2462 135.131C39.9362 134.382 38.9009 133.298 38.1402 131.88C37.3796 130.461 36.9992 128.744 36.9992 126.727C36.9992 124.705 37.3796 122.984 38.1402 121.566C38.9009 120.147 39.9362 119.066 41.2462 118.324C42.5562 117.575 44.0353 117.201 45.6834 117.201C47.3194 117.201 48.7924 117.575 50.1024 118.324C51.4185 119.066 52.4568 120.147 53.2175 121.566C53.9842 122.984 54.3675 124.705 54.3675 126.727ZM50.3922 126.727C50.3922 125.417 50.196 124.312 49.8036 123.413C49.4172 122.513 48.8709 121.831 48.1646 121.366C47.4582 120.902 46.6312 120.669 45.6834 120.669C44.7356 120.669 43.9085 120.902 43.2022 121.366C42.4959 121.831 41.9465 122.513 41.5541 123.413C41.1677 124.312 40.9746 125.417 40.9746 126.727C40.9746 128.037 41.1677 129.142 41.5541 130.042C41.9465 130.941 42.4959 131.623 43.2022 132.088C43.9085 132.553 44.7356 132.785 45.6834 132.785C46.6312 132.785 47.4582 132.553 48.1646 132.088C48.8709 131.623 49.4172 130.941 49.8036 130.042C50.196 129.142 50.3922 128.037 50.3922 126.727ZM57.272 117.455H62.1076L67.2148 129.915H67.4322L72.5394 117.455H77.375V136H73.5717V123.929H73.4178L68.6184 135.909H66.0286L61.2292 123.884H61.0753V136H57.272V117.455ZM97.6478 126.727C97.6478 128.75 97.2644 130.47 96.4977 131.889C95.7371 133.308 94.6987 134.391 93.3827 135.14C92.0727 135.882 90.5997 136.254 88.9636 136.254C87.3156 136.254 85.8365 135.879 84.5265 135.131C83.2165 134.382 82.1812 133.298 81.4205 131.88C80.6598 130.461 80.2795 128.744 80.2795 126.727C80.2795 124.705 80.6598 122.984 81.4205 121.566C82.1812 120.147 83.2165 119.066 84.5265 118.324C85.8365 117.575 87.3156 117.201 88.9636 117.201C90.5997 117.201 92.0727 117.575 93.3827 118.324C94.6987 119.066 95.7371 120.147 96.4977 121.566C97.2644 122.984 97.6478 124.705 97.6478 126.727ZM93.6725 126.727C93.6725 125.417 93.4763 124.312 93.0839 123.413C92.6975 122.513 92.1511 121.831 91.4448 121.366C90.7385 120.902 89.9114 120.669 88.9636 120.669C88.0158 120.669 87.1888 120.902 86.4825 121.366C85.7761 121.831 85.2268 122.513 84.8344 123.413C84.448 124.312 84.2548 125.417 84.2548 126.727C84.2548 128.037 84.448 129.142 84.8344 130.042C85.2268 130.941 85.7761 131.623 86.4825 132.088C87.1888 132.553 88.0158 132.785 88.9636 132.785C89.9114 132.785 90.7385 132.553 91.4448 132.088C92.1511 131.623 92.6975 130.941 93.0839 130.042C93.4763 129.142 93.6725 128.037 93.6725 126.727Z" fill="#F87171"/>
<path d="M117.616 123.947H113.649C113.577 123.434 113.429 122.978 113.206 122.58C112.982 122.175 112.695 121.831 112.345 121.548C111.995 121.264 111.591 121.047 111.132 120.896C110.679 120.745 110.187 120.669 109.656 120.669C108.696 120.669 107.86 120.908 107.148 121.385C106.435 121.855 105.883 122.544 105.49 123.449C105.098 124.349 104.902 125.441 104.902 126.727C104.902 128.049 105.098 129.16 105.49 130.06C105.889 130.959 106.444 131.638 107.157 132.097C107.869 132.556 108.693 132.785 109.629 132.785C110.154 132.785 110.64 132.716 111.087 132.577C111.539 132.438 111.941 132.236 112.291 131.97C112.641 131.699 112.931 131.37 113.16 130.983C113.396 130.597 113.559 130.156 113.649 129.661L117.616 129.679C117.513 130.531 117.256 131.352 116.846 132.142C116.441 132.927 115.895 133.631 115.207 134.252C114.525 134.868 113.71 135.357 112.762 135.719C111.82 136.075 110.755 136.254 109.565 136.254C107.911 136.254 106.432 135.879 105.128 135.131C103.83 134.382 102.804 133.298 102.049 131.88C101.301 130.461 100.926 128.744 100.926 126.727C100.926 124.705 101.307 122.984 102.067 121.566C102.828 120.147 103.86 119.066 105.164 118.324C106.468 117.575 107.935 117.201 109.565 117.201C110.64 117.201 111.636 117.352 112.554 117.654C113.477 117.956 114.295 118.396 115.008 118.976C115.72 119.549 116.3 120.253 116.746 121.086C117.199 121.919 117.489 122.873 117.616 123.947ZM120.427 136V117.455H124.348V132.767H132.299V136H120.427ZM151.216 126.727C151.216 128.75 150.832 130.47 150.066 131.889C149.305 133.308 148.267 134.391 146.951 135.14C145.641 135.882 144.168 136.254 142.532 136.254C140.883 136.254 139.404 135.879 138.094 135.131C136.784 134.382 135.749 133.298 134.988 131.88C134.228 130.461 133.847 128.744 133.847 126.727C133.847 124.705 134.228 122.984 134.988 121.566C135.749 120.147 136.784 119.066 138.094 118.324C139.404 117.575 140.883 117.201 142.532 117.201C144.168 117.201 145.641 117.575 146.951 118.324C148.267 119.066 149.305 120.147 150.066 121.566C150.832 122.984 151.216 124.705 151.216 126.727ZM147.24 126.727C147.24 125.417 147.044 124.312 146.652 123.413C146.265 122.513 145.719 121.831 145.013 121.366C144.306 120.902 143.479 120.669 142.532 120.669C141.584 120.669 140.757 120.902 140.05 121.366C139.344 121.831 138.795 122.513 138.402 123.413C138.016 124.312 137.823 125.417 137.823 126.727C137.823 128.037 138.016 129.142 138.402 130.042C138.795 130.941 139.344 131.623 140.05 132.088C140.757 132.553 141.584 132.785 142.532 132.785C143.479 132.785 144.306 132.553 145.013 132.088C145.719 131.623 146.265 130.941 146.652 130.042C147.044 129.142 147.24 128.037 147.24 126.727ZM170.483 123.947H166.517C166.445 123.434 166.297 122.978 166.073 122.58C165.85 122.175 165.563 121.831 165.213 121.548C164.863 121.264 164.458 121.047 164 120.896C163.547 120.745 163.055 120.669 162.524 120.669C161.564 120.669 160.728 120.908 160.015 121.385C159.303 121.855 158.75 122.544 158.358 123.449C157.966 124.349 157.769 125.441 157.769 126.727C157.769 128.049 157.966 129.16 158.358 130.06C158.757 130.959 159.312 131.638 160.024 132.097C160.737 132.556 161.561 132.785 162.496 132.785C163.022 132.785 163.508 132.716 163.954 132.577C164.407 132.438 164.809 132.236 165.159 131.97C165.509 131.699 165.799 131.37 166.028 130.983C166.263 130.597 166.426 130.156 166.517 129.661L170.483 129.679C170.381 130.531 170.124 131.352 169.714 132.142C169.309 132.927 168.763 133.631 168.075 134.252C167.392 134.868 166.577 135.357 165.63 135.719C164.688 136.075 163.622 136.254 162.433 136.254C160.779 136.254 159.3 135.879 157.996 135.131C156.698 134.382 155.672 133.298 154.917 131.88C154.168 130.461 153.794 128.744 153.794 126.727C153.794 124.705 154.174 122.984 154.935 121.566C155.696 120.147 156.728 119.066 158.032 118.324C159.336 117.575 160.803 117.201 162.433 117.201C163.508 117.201 164.504 117.352 165.421 117.654C166.345 117.956 167.163 118.396 167.875 118.976C168.588 119.549 169.167 120.253 169.614 121.086C170.067 121.919 170.356 122.873 170.483 123.947ZM173.295 136V117.455H177.216V125.632H177.46L184.134 117.455H188.834L181.952 125.758L188.916 136H184.225L179.145 128.375L177.216 130.73V136H173.295Z" fill="white"/>
<defs>
<filter id="filter0_dd_1_6" x="48.9844" y="0.372589" width="114.627" height="114.627" filterUnits="userSpaceOnUse" color-interpolation-filters="sRGB">
<feFlood flood-opacity="0" result="BackgroundImageFix"/>
<feColorMatrix in="SourceAlpha" type="matrix" values="0 0 0 0 0 0 0 0 0 0 0 0 0 0 0 0 0 0 127 0" result="hardAlpha"/>
<feMorphology radius="3" operator="erode" in="SourceAlpha" result="effect1_dropShadow_1_6"/>
<feOffset dy="10"/>
<feGaussianBlur stdDeviation="7.5"/>
<feColorMatrix type="matrix" values="0 0 0 0 0 0 0 0 0 0 0 0 0 0 0 0 0 0 0.1 0"/>
<feBlend mode="normal" in2="BackgroundImageFix" result="effect1_dropShadow_1_6"/>
<feColorMatrix in="SourceAlpha" type="matrix" values="0 0 0 0 0 0 0 0 0 0 0 0 0 0 0 0 0 0 127 0" result="hardAlpha"/>
<feMorphology radius="4" operator="erode" in="SourceAlpha" result="effect2_dropShadow_1_6"/>
<feOffset dy="4"/>
<feGaussianBlur stdDeviation="3"/>
<feColorMatrix type="matrix" values="0 0 0 0 0 0 0 0 0 0 0 0 0 0 0 0 0 0 0.1 0"/>
<feBlend mode="normal" in2="effect1_dropShadow_1_6" result="effect2_dropShadow_1_6"/>
<feBlend mode="normal" in="SourceGraphic" in2="effect2_dropShadow_1_6" result="shape"/>
</filter>
</defs>
</svg>
